# xmcd CD database file
# Copyright (C) 1993-1998 Ti Kan
# 
# Track frame offsets:
#     183
#     14005
#     28613
#     44018
#     57755
#     71755
#     85388
#     98708
#     112960
#     127688
#     140815
#     154253
#     167380
#     180128
#     193808
#     208633
#     222285
#     237965
# 
# Disc length: 3383 seconds
# 
# Revision: 1
# Processed by: cddbd v1.4b41PL1 Copyright (c) Steve Scherf et al.
# Submitted via: DiscPlay 4.0.4
# 
DISCID=f90d3512
DTITLE=Bessie Smith - I'm Wild About That Thing
DYEAR=1900
DGENRE=
TTITLE0=Alexanders Ragtime Band
TTITLE1=Trombone Cholly
TTITLE2=Send Me To The 'Lectric Chair
TTITLE3=Lock And Key
TTITLE4=A Good Man Is Hard To Find
TTITLE5=Dyin' By The Hour
TTITLE6=Foolish Man Blues
TTITLE7=Thinking Blues
TTITLE8=Devil's Gonna Get You
TTITLE9=I Used To Be Sweet Mama
TTITLE10=Standing In The Rain
TTITLE11=I'm Wild About That Thing
TTITLE12=You've Got To Give Me Some
TTITLE13=Kitchen Man
TTITLE14=He's Got Me Goin'
TTITLE15=Blue Spirit Blues
TTITLE16=Do Your Duty
TTITLE17=Gimme A Pigfoot
EXTD=
EXTT0=
EXTT1=
EXTT2=
EXTT3=
EXTT4=
EXTT5=
EXTT6=
EXTT7=
EXTT8=
EXTT9=
EXTT10=
EXTT11=
EXTT12=
EXTT13=
EXTT14=
EXTT15=
EXTT16=
EXTT17=
PLAYORDER=
